<svg width="67" height="25" viewBox="0 0 67 25" fill="none" xmlns="http://www.w3.org/2000/svg">
<g clip-path="url(#clip0_48780_28320)">
<rect width="67" height="25" fill="white"/>
<path d="M65.4528 0H57.4828C57.1543 0 56.8864 0.269398 56.8864 0.599633V13.0834C56.8864 13.7569 56.3375 14.3131 55.6632 14.3131C54.9933 14.3131 54.4401 13.7613 54.4401 13.0834V0.599633C54.4401 0.269398 54.1721 0 53.8436 0H45.8434C45.0135 0 44.3436 0.67785 44.3479 1.51213L44.3955 13.4701C44.3955 19.7446 49.4567 24.8328 55.6978 24.8328C61.9389 24.8328 67.0001 19.7446 67.0001 13.4701L66.9526 1.49909C66.9482 0.66916 66.2783 0 65.4528 0Z" fill="#7CC694"/>
<path d="M37.5708 24.546H30.6295C29.804 24.546 29.134 23.8725 29.134 23.0426V1.50344C29.134 0.673503 29.804 0 30.6295 0H37.5708C38.3963 0 39.0662 0.673503 39.0662 1.50344V23.0426C39.0706 23.8725 38.4006 24.546 37.5708 24.546Z" fill="#F06E61"/>
<path d="M15.7916 0.304163L12.1524 6.86542C11.8629 7.38249 11.2534 7.66494 10.6916 7.48244C9.93951 7.23476 9.62832 6.37007 9.9957 5.7096L12.6624 0.890761C12.8829 0.491003 12.5976 0 12.1438 0H1.49843C0.370358 0 -0.351433 1.20796 0.175864 2.20736L11.5344 23.8161C12.0962 24.885 13.6219 24.885 14.1838 23.8161L25.5423 2.20736C26.0696 1.20362 25.3478 0 24.2198 0H16.3103C16.0942 0 15.8954 0.117319 15.7916 0.304163Z" fill="#F6BD4E"/>
</g>
<defs>
<clipPath id="clip0_48780_28320">
<rect width="67" height="25" fill="white"/>
</clipPath>
</defs>
</svg>
